# xmcd
#
# Track frame offsets: 
#        150
#        8158
#        22188
#        40917
#        61807
#        76349
#        99075
#        113700
#        128476
#        138242
#        149266
#        171635
#
# Disc length: 2495 seconds
#
# Revision: 1
# Processed by: cddbd v1.5.1PL0 Copyright (c) Steve Scherf et al.
# Submitted via: ExactAudioCopy v0.95a5
#
DISCID=9709bd0c
DTITLE=Todd Snider - East Nashville Skyline
DYEAR=2004
DGENRE=Folk
TTITLE0=Age Like Wine
TTITLE1=Tillamook County Jail
TTITLE2=Play a Train Song
TTITLE3=Alcohol and Pills
TTITLE4=Good News Blues
TTITLE5=The Ballad of the Kingsmen
TTITLE6=Iron Mike's Main Man's Last Request
TTITLE7=Conservative Christian, Right Wing, Republican, Straight, Whit
TTITLE7=e, American Males
TTITLE8=Incarcerated
TTITLE9=Nashville
TTITLE10=Sunshine
TTITLE11=Enjoy Yourself
EXTD=
EXTT0=
EXTT1=
EXTT2=
EXTT3=
EXTT4=
EXTT5=
EXTT6=
EXTT7=
EXTT8=
EXTT9=
EXTT10=
EXTT11=
PLAYORDER=
